<?xml version="1.0" standalone="no"?>
<!DOCTYPE svg PUBLIC "-//W3C//DTD SVG 20010904//EN"
 "http://www.w3.org/TR/2001/REC-SVG-20010904/DTD/svg10.dtd">
<svg version="1.0" xmlns="http://www.w3.org/2000/svg"
 width="179.000000pt" height="229.000000pt" viewBox="0 0 179.000000 229.000000"
 preserveAspectRatio="xMidYMid meet">

<g transform="translate(0.000000,229.000000) scale(0.100000,-0.100000)"
fill="#000000" stroke="none">
<path d="M1395 2093 c0 -55 -4 -74 -23 -100 -35 -50 -128 -89 -307 -129 -252
-57 -330 -97 -379 -196 -48 -96 -31 -227 43 -318 l20 -25 -6 62 c-5 50 -2 69
16 106 37 77 98 107 340 166 87 21 186 51 220 66 105 47 171 141 171 244 0 41
-34 125 -63 157 l-32 35 0 -68z m-51 -252 c-42 -38 -109 -62 -276 -100 -119
-26 -187 -46 -263 -77 -17 -7 -18 -6 -7 8 23 29 126 67 303 111 96 25 193 54
215 65 54 29 65 26 28 -7z"/>
<path d="M547 1513 c-60 -64 -79 -187 -40 -273 41 -94 127 -142 348 -196 188
-46 256 -70 303 -104 53 -38 77 -100 69 -175 -3 -30 -4 -55 -2 -55 2 0 18 20
35 44 89 131 67 300 -51 386 -57 41 -125 64 -319 109 -221 52 -277 80 -306
158 -11 29 -15 57 -11 88 4 25 5 45 4 45 -2 0 -15 -12 -30 -27z m152 -300 c35
-13 111 -35 170 -48 149 -35 255 -74 293 -107 l33 -28 -56 25 c-31 14 -134 43
-230 65 -177 41 -261 73 -295 112 -19 21 -19 21 1 13 11 -4 49 -19 84 -32z"/>
<path d="M1046 899 c8 -65 -10 -121 -50 -157 -45 -39 -122 -68 -283 -103 -246
-54 -349 -112 -389 -216 -35 -92 -18 -212 41 -280 l33 -38 -5 50 c-15 154 55
207 382 286 272 65 355 135 355 295 0 75 -19 127 -64 179 l-26 30 6 -46z m-47
-275 c-45 -49 -101 -69 -327 -119 -62 -13 -140 -36 -173 -49 -44 -18 -56 -20
-47 -8 23 27 130 69 248 97 129 30 252 69 290 90 35 20 37 19 9 -11z"/>
</g>
</svg>
